<svg xmlns="http://www.w3.org/2000/svg" viewBox="0 0 120 120" fill="none" stroke="currentColor" stroke-linecap="round" stroke-linejoin="round" aria-hidden="true"><path d="M20.0,44.0 L22.5,43.3 L25.0,42.7 L27.5,42.4 L30.0,42.7 L32.5,43.6 L35.0,44.8 L37.5,46.0 L40.0,46.5 L42.5,46.3 L45.0,45.1 L47.5,43.4 L50.0,41.7 L52.5,40.6 L55.0,40.6 L57.5,41.9 L60.0,44.0 L62.5,46.3 L65.0,48.1 L67.5,48.5 L70.0,47.4 L72.5,45.0 L75.0,42.0 L77.5,39.6 L80.0,38.5 L82.5,39.3 L85.0,41.7 L87.5,45.2 L90.0,48.4 L92.5,50.3 L95.0,50.1 L97.5,47.8 L100.0,44.0" stroke-width="2"/><path d="M20.0,58.0 L22.5,57.3 L25.0,56.7 L27.5,56.4 L30.0,56.7 L32.5,57.6 L35.0,58.8 L37.5,60.0 L40.0,60.5 L42.5,60.3 L45.0,59.1 L47.5,57.4 L50.0,55.7 L52.5,54.6 L55.0,54.6 L57.5,55.9 L60.0,58.0 L62.5,60.3 L65.0,62.1 L67.5,62.5 L70.0,61.4 L72.5,59.0 L75.0,56.0 L77.5,53.6 L80.0,52.5 L82.5,53.3 L85.0,55.7 L87.5,59.2 L90.0,62.4 L92.5,64.3 L95.0,64.1 L97.5,61.8 L100.0,58.0" stroke-width="2.5"/><path d="M20.0,72.0 L22.5,71.3 L25.0,70.7 L27.5,70.4 L30.0,70.7 L32.5,71.6 L35.0,72.8 L37.5,74.0 L40.0,74.5 L42.5,74.3 L45.0,73.1 L47.5,71.4 L50.0,69.7 L52.5,68.6 L55.0,68.6 L57.5,69.9 L60.0,72.0 L62.5,74.3 L65.0,76.1 L67.5,76.5 L70.0,75.4 L72.5,73.0 L75.0,70.0 L77.5,67.6 L80.0,66.5 L82.5,67.3 L85.0,69.7 L87.5,73.2 L90.0,76.4 L92.5,78.3 L95.0,78.1 L97.5,75.8 L100.0,72.0" stroke-width="3"/><path d="M20.0,86.0 L22.5,85.3 L25.0,84.7 L27.5,84.4 L30.0,84.7 L32.5,85.6 L35.0,86.8 L37.5,88.0 L40.0,88.5 L42.5,88.3 L45.0,87.1 L47.5,85.4 L50.0,83.7 L52.5,82.6 L55.0,82.6 L57.5,83.9 L60.0,86.0 L62.5,88.3 L65.0,90.1 L67.5,90.5 L70.0,89.4 L72.5,87.0 L75.0,84.0 L77.5,81.6 L80.0,80.5 L82.5,81.3 L85.0,83.7 L87.5,87.2 L90.0,90.4 L92.5,92.3 L95.0,92.1 L97.5,89.8 L100.0,86.0" stroke-width="4"/></svg>