<svg xmlns="http://www.w3.org/2000/svg" viewBox="0 0 120 120" fill="none" stroke="currentColor" stroke-linecap="round" stroke-linejoin="round" aria-hidden="true"><line x1="24.0" y1="80.0" x2="24.0" y2="93.0" stroke-width="4"/><line x1="48.0" y1="80.0" x2="48.0" y2="93.0" stroke-width="4"/><line x1="72.0" y1="80.0" x2="72.0" y2="93.0" stroke-width="4"/><line x1="96.0" y1="80.0" x2="96.0" y2="93.0" stroke-width="4"/><path d="M24.0,47.6 L28.0,46.7 L32.0,44.4 L36.0,51.7 L40.0,43.1 L44.0,48.0 L48.0,52.0 L52.0,43.8 L56.0,48.5 L60.0,49.2 L64.0,43.4 L68.0,46.8 L72.0,50.0 L76.0,47.5 L80.0,50.3 L84.0,44.6 L88.0,45.4 L92.0,44.1 L96.0,48.1" stroke-width="2.5"/><circle cx="24.0" cy="80.0" r="2.5" fill="currentColor" stroke="none"/><circle cx="48.0" cy="80.0" r="2.5" fill="currentColor" stroke="none"/><circle cx="72.0" cy="80.0" r="2.5" fill="currentColor" stroke="none"/><circle cx="96.0" cy="80.0" r="2.5" fill="currentColor" stroke="none"/></svg>