<svg xmlns="http://www.w3.org/2000/svg" viewBox="0 0 120 120" fill="none" stroke="currentColor" stroke-linecap="round" stroke-linejoin="round" aria-hidden="true"><path d="M18.0,82.0 L20.5,78.8 L23.1,75.8 L25.6,73.1 L28.2,70.9 L30.7,69.3 L33.3,68.3 L35.8,68.0 L38.4,68.5 L40.9,69.6 L43.5,71.4 L46.0,73.8 L48.5,76.6 L51.1,79.6 L53.6,82.8 L56.2,85.9 L58.7,88.9 L61.3,91.5 L63.8,93.6 L66.4,95.0 L68.9,95.9 L71.5,95.9 L74.0,95.3 L76.5,94.0 L79.1,92.0 L81.6,89.6 L84.2,86.7 L86.7,83.6 L89.3,80.4 L91.8,77.3 L94.4,74.4 L96.9,72.0 L99.5,70.0 L102.0,68.7" stroke-width="5"/><path d="M18.0,41.5 L24.0,42.9 L30.0,43.5 L36.0,45.3 L42.0,42.9 L48.0,45.1 L54.0,34.3 L60.0,39.6 L66.0,45.3 L72.0,41.8 L78.0,44.8 L84.0,35.4 L90.0,39.6 L96.0,37.0 L102.0,40.5" stroke-width="3"/></svg>