<svg xmlns="http://www.w3.org/2000/svg" viewBox="0 0 120 120" fill="none" stroke="currentColor" stroke-linecap="round" stroke-linejoin="round" aria-hidden="true"><path d="M20.0,52.0 L22.5,50.4 L25.0,49.0 L27.5,48.4 L30.0,49.1 L32.5,51.1 L35.0,53.9 L37.5,56.5 L40.0,57.8 L42.5,57.2 L45.0,54.5 L47.5,50.6 L50.0,46.7 L52.5,44.2 L55.0,44.3 L57.5,47.1 L60.0,52.0 L62.5,57.3 L65.0,61.3 L67.5,62.3 L70.0,59.7 L72.5,54.2 L75.0,47.5 L77.5,41.9 L80.0,39.4 L82.5,41.2 L85.0,46.9 L87.5,54.7 L90.0,62.1 L92.5,66.4 L95.0,66.0 L97.5,60.7 L100.0,52.0" stroke-width="3"/><path d="M20.0,74.0 L22.5,72.4 L25.0,71.0 L27.5,70.4 L30.0,71.1 L32.5,73.1 L35.0,75.9 L37.5,78.5 L40.0,79.8 L42.5,79.2 L45.0,76.5 L47.5,72.6 L50.0,68.7 L52.5,66.2 L55.0,66.3 L57.5,69.1 L60.0,74.0 L62.5,79.3 L65.0,83.3 L67.5,84.3 L70.0,81.7 L72.5,76.2 L75.0,69.5 L77.5,63.9 L80.0,61.4 L82.5,63.2 L85.0,68.9 L87.5,76.7 L90.0,84.1 L92.5,88.4 L95.0,88.0 L97.5,82.7 L100.0,74.0" stroke-width="2.2"/></svg>