<svg xmlns="http://www.w3.org/2000/svg" viewBox="0 0 120 120" fill="none" stroke="currentColor" stroke-linecap="round" stroke-linejoin="round" aria-hidden="true"><path d="M18.0,38.0 L20.5,34.2 L23.1,31.6 L25.6,31.1 L28.2,32.7 L30.7,36.0 L33.3,40.0 L35.8,43.3 L38.4,44.9 L40.9,44.4 L43.5,41.8 L46.0,38.0 L48.5,34.2 L51.1,31.6 L53.6,31.1 L56.2,32.7 L58.7,36.0 L61.3,40.0 L63.8,43.3 L66.4,44.9 L68.9,44.4 L71.5,41.8 L74.0,38.0 L76.5,34.2 L79.1,31.6 L81.6,31.1 L84.2,32.7 L86.7,36.0 L89.3,40.0 L91.8,43.3 L94.4,44.9 L96.9,44.4 L99.5,41.8 L102.0,38.0" stroke-width="2"/><path d="M18.0,84.0 L20.5,80.6 L23.1,77.4 L25.6,74.5 L28.2,72.1 L30.7,70.4 L33.3,69.3 L35.8,69.0 L38.4,69.5 L40.9,70.7 L43.5,72.7 L46.0,75.2 L48.5,78.2 L51.1,81.4 L53.6,84.9 L56.2,88.2 L58.7,91.4 L61.3,94.1 L63.8,96.4 L66.4,98.0 L68.9,98.8 L71.5,98.9 L74.0,98.3 L76.5,96.8 L79.1,94.8 L81.6,92.1 L84.2,89.0 L86.7,85.7 L89.3,82.3 L91.8,79.0 L94.4,75.9 L96.9,73.2 L99.5,71.2 L102.0,69.7" stroke-width="5"/></svg>