<svg xmlns="http://www.w3.org/2000/svg" viewBox="0 0 120 120" fill="none" stroke="currentColor" stroke-linecap="round" stroke-linejoin="round" aria-hidden="true"><path d="M18.0,80.0 L20.5,76.6 L23.1,73.4 L25.6,70.7 L28.2,68.6 L30.7,67.4 L33.3,67.0 L35.8,67.6 L38.4,69.0 L40.9,71.2 L43.5,74.0 L46.0,77.3 L48.5,80.7 L51.1,84.1 L53.6,87.2 L56.2,89.8 L58.7,91.7 L61.3,92.8 L63.8,93.0 L66.4,92.2 L68.9,90.6 L71.5,88.2 L74.0,85.3 L76.5,82.0 L79.1,78.5 L81.6,75.2 L84.2,72.2 L86.7,69.7 L89.3,68.0 L91.8,67.1 L94.4,67.1 L96.9,68.1 L99.5,69.9 L102.0,72.4" stroke-width="5"/><path d="M24.0,46.0 L26.6,42.1 L29.1,39.0 L31.7,37.2 L34.3,37.2 L36.9,39.0 L39.4,42.1 L42.0,46.0 L44.6,49.9 L47.1,53.0 L49.7,54.8 L52.3,54.8 L54.9,53.0 L57.4,49.9 L60.0,46.0 L62.6,42.1 L65.1,39.0 L67.7,37.2 L70.3,37.2 L72.9,39.0 L75.4,42.1 L78.0,46.0 L80.6,49.9 L83.1,53.0 L85.7,54.8 L88.3,54.8 L90.9,53.0 L93.4,49.9 L96.0,46.0" stroke-width="2.5"/></svg>