<svg xmlns="http://www.w3.org/2000/svg" viewBox="0 0 120 120" fill="none" stroke="currentColor" stroke-linecap="round" stroke-linejoin="round" aria-hidden="true"><rect x="18.0" y="72.0" width="9.0" height="9.0" rx="2.5" fill="currentColor" stroke="none"/><rect x="42.0" y="72.0" width="9.0" height="9.0" rx="2.5" fill="currentColor" stroke="none"/><rect x="66.0" y="72.0" width="9.0" height="9.0" rx="2.5" fill="currentColor" stroke="none"/><rect x="90.0" y="72.0" width="9.0" height="9.0" rx="2.5" fill="currentColor" stroke="none"/><path d="M18.0,41.8 L21.0,47.7 L24.0,41.0 L27.0,45.6 L30.0,40.7 L33.0,42.0 L36.0,48.0 L39.0,41.7 L42.0,45.1 L45.0,43.7 L48.0,43.6 L51.0,44.0 L54.0,41.5 L57.0,46.6 L60.0,40.7 L63.0,41.9 L66.0,40.2 L69.0,42.1 L72.0,43.3 L75.0,47.2 L78.0,43.0 L81.0,40.9 L84.0,42.1 L87.0,47.9 L90.0,40.5 L93.0,45.0 L96.0,43.0" stroke-width="3"/><circle cx="22.0" cy="44.0" r="3.2" fill="currentColor" stroke="none"/><circle cx="46.0" cy="44.0" r="3.2" fill="currentColor" stroke="none"/><circle cx="70.0" cy="44.0" r="3.2" fill="currentColor" stroke="none"/><circle cx="94.0" cy="44.0" r="3.2" fill="currentColor" stroke="none"/></svg>