<svg xmlns="http://www.w3.org/2000/svg" viewBox="0 0 120 120" fill="none" stroke="currentColor" stroke-linecap="round" stroke-linejoin="round" aria-hidden="true"><path d="M14.0,28.0 L16.6,27.0 L19.1,26.0 L21.7,25.2 L24.2,24.5 L26.8,24.1 L29.3,24.0 L31.9,24.1 L34.4,24.5 L37.0,25.2 L39.6,26.0 L42.1,27.0 L44.7,28.0 L47.2,29.0 L49.8,30.0 L52.3,30.8 L54.9,31.5 L57.4,31.9 L60.0,32.0 L62.6,31.9 L65.1,31.5 L67.7,30.8 L70.2,30.0 L72.8,29.0 L75.3,28.0 L77.9,27.0 L80.4,26.0 L83.0,25.2 L85.6,24.5 L88.1,24.1 L90.7,24.0 L93.2,24.1 L95.8,24.5 L98.3,25.2 L100.9,26.0 L103.4,27.0 L106.0,28.0" stroke-width="2"/><path d="M14.0,40.0 L16.6,39.0 L19.1,38.0 L21.7,37.2 L24.2,36.5 L26.8,36.1 L29.3,36.0 L31.9,36.1 L34.4,36.5 L37.0,37.2 L39.6,38.0 L42.1,39.0 L44.7,40.0 L47.2,41.0 L49.8,42.0 L52.3,42.8 L54.9,43.5 L57.4,43.9 L60.0,44.0 L62.6,43.9 L65.1,43.5 L67.7,42.8 L70.2,42.0 L72.8,41.0 L75.3,40.0 L77.9,39.0 L80.4,38.0 L83.0,37.2 L85.6,36.5 L88.1,36.1 L90.7,36.0 L93.2,36.1 L95.8,36.5 L98.3,37.2 L100.9,38.0 L103.4,39.0 L106.0,40.0" stroke-width="2"/><path d="M14.0,52.0 L16.6,51.0 L19.1,50.0 L21.7,49.2 L24.2,48.5 L26.8,48.1 L29.3,48.0 L31.9,48.1 L34.4,48.5 L37.0,49.2 L39.6,50.0 L42.1,51.0 L44.7,52.0 L47.2,53.0 L49.8,54.0 L52.3,54.8 L54.9,55.5 L57.4,55.9 L60.0,56.0 L62.6,55.9 L65.1,55.5 L67.7,54.8 L70.2,54.0 L72.8,53.0 L75.3,52.0 L77.9,51.0 L80.4,50.0 L83.0,49.2 L85.6,48.5 L88.1,48.1 L90.7,48.0 L93.2,48.1 L95.8,48.5 L98.3,49.2 L100.9,50.0 L103.4,51.0 L106.0,52.0" stroke-width="2"/><rect x="20.0" y="74.0" width="10.0" height="24.0" rx="2" fill="currentColor" stroke="none"/><rect x="38.0" y="66.0" width="10.0" height="32.0" rx="2" fill="currentColor" stroke="none"/><rect x="56.0" y="58.0" width="10.0" height="40.0" rx="2" fill="currentColor" stroke="none"/><rect x="74.0" y="90.0" width="10.0" height="8.0" rx="2" fill="currentColor" stroke="none"/><rect x="92.0" y="94.0" width="10.0" height="4.0" rx="2" fill="currentColor" stroke="none"/><line x1="14.0" y1="102.0" x2="106.0" y2="102.0" stroke-width="1.5"/></svg>