<svg xmlns="http://www.w3.org/2000/svg" viewBox="0 0 120 120" fill="none" stroke="currentColor" stroke-linecap="round" stroke-linejoin="round" aria-hidden="true"><path d="M20,60 C20,36 34,26 48,28 C62,30 74,32 84,32 C96,32 104,44 104,60 C104,76 96,90 84,90 C74,90 62,92 48,94 C34,96 20,84 20,60 Z" stroke-width="3"/><line x1="62.0" y1="30.0" x2="62.0" y2="92.0" stroke-width="2.5"/><rect x="26.0" y="46.0" width="30.0" height="28.0" rx="2" fill="currentColor" stroke="none"/><path d="M78,44 C86,44 88,52 84,60 C80,68 82,76 88,76" stroke-width="2.5"/><circle cx="78.0" cy="42.0" r="2.5" fill="currentColor" stroke="none"/><circle cx="88.0" cy="78.0" r="2.5" fill="currentColor" stroke="none"/></svg>