<svg xmlns="http://www.w3.org/2000/svg" viewBox="0 0 120 120" fill="none" stroke="currentColor" stroke-linecap="round" stroke-linejoin="round" aria-hidden="true"><path d="M16.0,50.0 L18.5,45.1 L21.0,40.8 L23.5,37.7 L26.1,36.1 L28.6,36.4 L31.1,38.3 L33.6,41.8 L36.1,46.3 L38.6,51.3 L41.1,56.1 L43.7,60.1 L46.2,62.9 L48.7,64.0 L51.2,63.3 L53.7,60.9 L56.2,57.2 L58.7,52.5 L61.3,47.5 L63.8,42.8 L66.3,39.1 L68.8,36.7 L71.3,36.0 L73.8,37.1 L76.3,39.9 L78.9,43.9 L81.4,48.7 L83.9,53.7 L86.4,58.2 L88.9,61.7 L91.4,63.6 L93.9,63.9 L96.5,62.3 L99.0,59.2 L101.5,54.9 L104.0,50.0" stroke-width="5"/><path d="M16.0,81.4 L19.5,80.0 L23.0,83.0 L26.6,80.5 L30.1,79.7 L33.6,83.0 L37.1,88.2 L40.6,87.0 L44.2,86.7 L47.7,81.2 L51.2,84.4 L54.7,81.8 L58.2,80.7 L61.8,80.1 L65.3,81.1 L68.8,88.3 L72.3,87.3 L75.8,87.1 L79.4,87.0 L82.9,80.9 L86.4,82.1 L89.9,85.3 L93.4,86.3 L97.0,87.5 L100.5,87.8 L104.0,79.9" stroke-width="1.5"/><path d="M16.0,91.7 L19.5,91.0 L23.0,89.1 L26.6,94.9 L30.1,88.1 L33.6,92.0 L37.1,95.2 L40.6,88.6 L44.2,92.4 L47.7,92.9 L51.2,88.3 L54.7,91.0 L58.2,93.6 L61.8,91.6 L65.3,93.8 L68.8,89.3 L72.3,89.9 L75.8,88.9 L79.4,92.1 L82.9,95.4 L86.4,92.7 L89.9,94.2 L93.4,91.1 L97.0,94.0 L100.5,88.8 L104.0,90.3" stroke-width="1.2"/></svg>