<svg xmlns="http://www.w3.org/2000/svg" viewBox="0 0 120 120" fill="none" stroke="currentColor" stroke-linecap="round" stroke-linejoin="round" aria-hidden="true"><path d="M14.0,60.0 L16.5,56.0 L19.0,60.0 L21.5,64.0 L24.0,60.0 L26.5,56.0 L29.0,60.0 L31.5,64.0 L34.0,60.0 L36.5,56.0 L39.0,60.0 L41.5,64.0 L44.0,60.0 L46.5,56.0 L49.0,60.0 L51.5,64.0 L54.0,60.0" stroke-width="1.5"/><line x1="58.0" y1="26.0" x2="58.0" y2="94.0" stroke-width="2"/><path d="M62.0,60.0 L64.6,33.1 L67.2,36.1 L69.8,65.5 L72.4,88.9 L74.9,80.2 L77.5,49.2 L80.1,30.1 L82.7,44.2 L85.3,75.8 L87.9,89.9 L90.5,70.8 L93.1,39.8 L95.6,31.1 L98.2,54.5 L100.8,83.9 L103.4,86.9 L106.0,60.0" stroke-width="4"/></svg>