<svg xmlns="http://www.w3.org/2000/svg" viewBox="0 0 120 120" fill="none" stroke="currentColor" stroke-linecap="round" stroke-linejoin="round" aria-hidden="true"><circle cx="20.0" cy="60.0" r="5.0" fill="currentColor" stroke="none"/><path d="M26.9,69.8 A12.0,12.0 0 0 0 26.9,50.2" stroke-width="3"/><line x1="32.0" y1="42.0" x2="104.0" y2="42.0" stroke-width="3"/><path d="M36.0,60.0 L38.6,49.7 L41.1,45.0 L43.7,48.4 L46.2,58.1 L48.8,68.8 L51.4,74.7 L53.9,72.7 L56.5,63.7 L59.0,52.8 L61.6,45.7 L64.2,46.4 L66.7,54.5 L69.3,65.5 L71.8,73.6 L74.4,74.3 L77.0,67.2 L79.5,56.3 L82.1,47.3 L84.6,45.3 L87.2,51.2 L89.8,61.9 L92.3,71.6 L94.9,75.0 L97.4,70.3 L100.0,60.0" stroke-width="2.5"/></svg>