<svg xmlns="http://www.w3.org/2000/svg" viewBox="0 0 120 120" fill="none" stroke="currentColor" stroke-linecap="round" stroke-linejoin="round" aria-hidden="true"><line x1="16.0" y1="0.0" x2="104.0" y2="0.0" stroke-width="2"/><line x1="18.0" y1="30.0" x2="18.0" y2="36.0" stroke-width="1.5"/><line x1="28.0" y1="30.0" x2="28.0" y2="36.0" stroke-width="1.5"/><line x1="38.0" y1="30.0" x2="38.0" y2="36.0" stroke-width="1.5"/><line x1="48.0" y1="30.0" x2="48.0" y2="36.0" stroke-width="1.5"/><line x1="58.0" y1="30.0" x2="58.0" y2="36.0" stroke-width="1.5"/><line x1="68.0" y1="30.0" x2="68.0" y2="36.0" stroke-width="1.5"/><line x1="78.0" y1="30.0" x2="78.0" y2="36.0" stroke-width="1.5"/><line x1="88.0" y1="30.0" x2="88.0" y2="36.0" stroke-width="1.5"/><line x1="98.0" y1="30.0" x2="98.0" y2="36.0" stroke-width="1.5"/><path d="M18.0,48.0 L20.5,43.2 L23.1,41.0 L25.6,42.7 L28.2,47.3 L30.7,52.3 L33.3,54.9 L35.8,53.7 L38.4,49.3 L40.9,44.2 L43.5,41.2 L46.0,41.9 L48.5,46.0 L51.1,51.2 L53.6,54.6 L56.2,54.4 L58.7,50.6 L61.3,45.4 L63.8,41.6 L66.4,41.4 L68.9,44.8 L71.5,50.0 L74.0,54.1 L76.5,54.8 L79.1,51.8 L81.6,46.7 L84.2,42.3 L86.7,41.1 L89.3,43.7 L91.8,48.7 L94.4,53.3 L96.9,55.0 L99.5,52.8 L102.0,48.0" stroke-width="4"/><path d="M18.0,66.0 L20.5,61.9 L23.1,60.0 L25.6,61.5 L28.2,65.4 L30.7,69.7 L33.3,71.9 L35.8,70.9 L38.4,67.1 L40.9,62.8 L43.5,60.2 L46.0,60.8 L48.5,64.3 L51.1,68.7 L53.6,71.7 L56.2,71.5 L58.7,68.2 L61.3,63.8 L63.8,60.5 L66.4,60.3 L68.9,63.3 L71.5,67.7 L74.0,71.2 L76.5,71.8 L79.1,69.2 L81.6,64.9 L84.2,61.1 L86.7,60.1 L89.3,62.3 L91.8,66.6 L94.4,70.5 L96.9,72.0 L99.5,70.1 L102.0,66.0" stroke-width="2.5"/><path d="M18.0,84.0 L20.5,80.5 L23.1,79.0 L25.6,80.2 L28.2,83.5 L30.7,87.1 L33.3,88.9 L35.8,88.1 L38.4,84.9 L40.9,81.3 L43.5,79.1 L46.0,79.7 L48.5,82.6 L51.1,86.3 L53.6,88.7 L56.2,88.5 L58.7,85.9 L61.3,82.1 L63.8,79.5 L66.4,79.3 L68.9,81.7 L71.5,85.4 L74.0,88.3 L76.5,88.9 L79.1,86.7 L81.6,83.1 L84.2,79.9 L86.7,79.1 L89.3,80.9 L91.8,84.5 L94.4,87.8 L96.9,89.0 L99.5,87.5 L102.0,84.0" stroke-width="2"/></svg>