<svg xmlns="http://www.w3.org/2000/svg" viewBox="0 0 120 120" fill="none" stroke="currentColor" stroke-linecap="round" stroke-linejoin="round" aria-hidden="true"><rect x="20.0" y="56.0" width="12.0" height="14.0" rx="2.5" fill="currentColor" stroke="none"/><rect x="46.0" y="56.0" width="12.0" height="14.0" rx="2.5" fill="currentColor" stroke="none"/><rect x="72.0" y="56.0" width="12.0" height="14.0" rx="2.5" fill="currentColor" stroke="none"/><path d="M20.0,38.6 L23.0,37.2 L26.1,41.2 L29.1,36.6 L32.2,40.3 L35.2,38.9 L38.3,36.5 L41.3,40.1 L44.4,36.3 L47.4,39.5 L50.5,36.6 L53.5,36.7 L56.6,39.4 L59.6,42.6 L62.7,37.0 L65.7,37.8 L68.8,41.0 L71.8,43.6 L74.9,40.6 L77.9,39.2 L81.0,43.8 L84.0,36.4" stroke-width="3"/><circle cx="26.0" cy="40.0" r="3.2" fill="currentColor" stroke="none"/><circle cx="52.0" cy="40.0" r="3.2" fill="currentColor" stroke="none"/><circle cx="78.0" cy="40.0" r="3.2" fill="currentColor" stroke="none"/></svg>