<svg xmlns="http://www.w3.org/2000/svg" viewBox="0 0 120 120" fill="none" stroke="currentColor" stroke-linecap="round" stroke-linejoin="round" aria-hidden="true"><path d="M16.0,44.0 L18.5,37.6 L21.0,35.0 L23.5,37.6 L26.0,44.0 L28.5,50.4 L31.0,53.0 L33.5,50.4 L36.0,44.0 L38.5,37.6 L41.0,35.0 L43.5,37.6 L46.0,44.0" stroke-width="2.5"/><path d="M16.0,68.0 L18.5,67.4 L21.0,71.9 L23.5,78.8 L26.0,84.0 L28.5,84.6 L31.0,80.1 L33.5,73.2 L36.0,68.0 L38.5,67.4 L41.0,71.9 L43.5,78.8 L46.0,84.0" stroke-width="2.5"/><line x1="48.0" y1="44.0" x2="74.0" y2="58.0" stroke-width="2"/><line x1="48.0" y1="76.0" x2="74.0" y2="62.0" stroke-width="2"/><line x1="84.0" y1="34.0" x2="84.0" y2="86.0" stroke-width="7"/><circle cx="84.0" cy="60.0" r="3.0" fill="currentColor" stroke="none"/></svg>