<svg xmlns="http://www.w3.org/2000/svg" viewBox="0 0 120 120" fill="none" stroke="currentColor" stroke-linecap="round" stroke-linejoin="round" aria-hidden="true"><line x1="20.0" y1="30.0" x2="28.0" y2="38.0" stroke-width="2"/><line x1="42.0" y1="24.0" x2="50.0" y2="32.0" stroke-width="2"/><line x1="66.0" y1="32.0" x2="74.0" y2="40.0" stroke-width="2"/><line x1="90.0" y1="26.0" x2="98.0" y2="34.0" stroke-width="2"/><line x1="16.0" y1="54.0" x2="24.0" y2="62.0" stroke-width="2"/><line x1="40.0" y1="50.0" x2="48.0" y2="58.0" stroke-width="2"/><line x1="88.0" y1="52.0" x2="96.0" y2="60.0" stroke-width="2"/><line x1="24.0" y1="80.0" x2="32.0" y2="88.0" stroke-width="2"/><line x1="48.0" y1="84.0" x2="56.0" y2="92.0" stroke-width="2"/><line x1="74.0" y1="80.0" x2="82.0" y2="88.0" stroke-width="2"/><line x1="96.0" y1="76.0" x2="104.0" y2="84.0" stroke-width="2"/><line x1="28.0" y1="30.0" x2="20.0" y2="38.0" stroke-width="2"/><line x1="50.0" y1="24.0" x2="42.0" y2="32.0" stroke-width="2"/><line x1="74.0" y1="32.0" x2="66.0" y2="40.0" stroke-width="2"/><line x1="98.0" y1="26.0" x2="90.0" y2="34.0" stroke-width="2"/><line x1="24.0" y1="54.0" x2="16.0" y2="62.0" stroke-width="2"/><line x1="48.0" y1="50.0" x2="40.0" y2="58.0" stroke-width="2"/><line x1="96.0" y1="52.0" x2="88.0" y2="60.0" stroke-width="2"/><line x1="32.0" y1="80.0" x2="24.0" y2="88.0" stroke-width="2"/><line x1="56.0" y1="84.0" x2="48.0" y2="92.0" stroke-width="2"/><line x1="82.0" y1="80.0" x2="74.0" y2="88.0" stroke-width="2"/><line x1="104.0" y1="76.0" x2="96.0" y2="84.0" stroke-width="2"/><circle cx="70.0" cy="62.0" r="4.5" fill="currentColor" stroke="none"/><circle cx="70.0" cy="62.0" r="13.0" stroke-width="2.5"/></svg>