<svg xmlns="http://www.w3.org/2000/svg" viewBox="0 0 120 120" fill="none" stroke="currentColor" stroke-linecap="round" stroke-linejoin="round" aria-hidden="true"><path d="M18,44 L18,32 L52,32 L52,44 C52,60 18,60 18,44 Z" stroke-width="3"/><path d="M68,44 L68,32 L102,32 L102,44 C102,54 96,58 85,58 C74,58 68,54 68,44 Z" stroke-width="3"/><path d="M88.3,76.3 A44.0,44.0 0 0 0 31.7,76.3" stroke-width="3"/><line x1="79.0" y1="77.1" x2="83.0" y2="70.2" stroke-width="1.8"/><line x1="69.8" y1="73.3" x2="71.9" y2="65.6" stroke-width="1.8"/><line x1="60.0" y1="72.0" x2="60.0" y2="64.0" stroke-width="1.8"/><line x1="50.2" y1="73.3" x2="48.1" y2="65.6" stroke-width="1.8"/><line x1="41.0" y1="77.1" x2="37.0" y2="70.2" stroke-width="1.8"/></svg>