<svg xmlns="http://www.w3.org/2000/svg" viewBox="0 0 120 120" fill="none" stroke="currentColor" stroke-linecap="round" stroke-linejoin="round" aria-hidden="true"><rect x="16.0" y="58.0" width="88.0" height="16.0" rx="2" fill="none" stroke-width="3"/><rect x="24.0" y="50.0" width="8.0" height="10.0" rx="2" fill="currentColor" stroke="none"/><rect x="40.0" y="50.0" width="8.0" height="10.0" rx="2" fill="currentColor" stroke="none"/><rect x="56.0" y="50.0" width="8.0" height="10.0" rx="2" fill="currentColor" stroke="none"/><rect x="72.0" y="50.0" width="8.0" height="10.0" rx="2" fill="currentColor" stroke="none"/><rect x="88.0" y="50.0" width="8.0" height="10.0" rx="2" fill="currentColor" stroke="none"/><line x1="28.0" y1="50.0" x2="28.0" y2="34.0" stroke-width="1.5"/><line x1="44.0" y1="50.0" x2="44.0" y2="34.0" stroke-width="1.5"/><line x1="60.0" y1="50.0" x2="60.0" y2="34.0" stroke-width="1.5"/><line x1="76.0" y1="50.0" x2="76.0" y2="34.0" stroke-width="1.5"/><line x1="92.0" y1="50.0" x2="92.0" y2="34.0" stroke-width="1.5"/><rect x="14.0" y="80.0" width="92.0" height="10.0" rx="2" fill="none" stroke-width="3"/><rect x="44.0" y="84.0" width="32.0" height="2.0" rx="2" fill="currentColor" stroke="none"/></svg>