<svg xmlns="http://www.w3.org/2000/svg" viewBox="0 0 120 120" fill="none" stroke="currentColor" stroke-linecap="round" stroke-linejoin="round" aria-hidden="true"><path d="M14.0,42.0 L16.6,32.2 L19.2,33.2 L21.8,44.0 L24.4,52.6 L26.9,49.4 L29.5,38.0 L32.1,31.0 L34.7,36.2 L37.3,47.8 L39.9,53.0 L42.5,46.0 L45.1,34.6 L47.6,31.4 L50.2,40.0 L52.8,50.8 L55.4,51.8 L58.0,42.0" stroke-width="2.5"/><path d="M14.0,80.0 L16.6,75.3 L19.2,71.5 L21.8,69.3 L24.4,69.2 L26.9,71.2 L29.5,74.9 L32.1,79.6 L34.7,84.3 L37.3,88.3 L39.9,90.6 L42.5,90.8 L45.1,89.0 L47.6,85.4 L50.2,80.8 L52.8,76.0 L55.4,72.0 L58.0,69.5" stroke-width="2.5"/><path d="M58,42 C68,42 68,60 76,60" stroke-width="2.5"/><path d="M58,80 C68,80 68,60 76,60" stroke-width="2.5"/><path d="M76.0,60.0 L78.5,51.3 L81.0,51.3 L83.5,60.0 L86.0,68.7 L88.5,68.7 L91.0,60.0 L93.5,51.3 L96.0,51.3 L98.5,60.0 L101.0,68.7 L103.5,68.7 L106.0,60.0" stroke-width="4"/></svg>